<svg id="Layer_1" data-name="Layer 1" xmlns="http://www.w3.org/2000/svg" viewBox="0 0 512 512"><defs><style>.cls-1{fill:#141f38;}</style></defs><title>watch-outline</title><path class="cls-1" d="M271.46,272.55a38.42,38.42,0,0,0-21.86-52.76V166.4a12.8,12.8,0,1,0-25.6,0v53.39a38.4,38.4,0,1,0,29.35,70.86l51.2,51.19a12.8,12.8,0,0,0,18.1-18.1ZM236.8,268.8A12.8,12.8,0,1,1,249.6,256,12.81,12.81,0,0,1,236.8,268.8Z"/><path class="cls-1" d="M435.2,204.8H421.89A192.37,192.37,0,0,0,339.2,93.57V44.8A44.8,44.8,0,0,0,294.4,0H179.2a44.8,44.8,0,0,0-44.8,44.8V93.57a192,192,0,0,0,0,324.86V467.2A44.8,44.8,0,0,0,179.2,512H294.4a44.8,44.8,0,0,0,44.8-44.8V418.43A192.37,192.37,0,0,0,421.89,307.2H435.2a32,32,0,0,0,32-32V236.8A32,32,0,0,0,435.2,204.8ZM160,44.8a19.22,19.22,0,0,1,19.2-19.2H294.4a19.22,19.22,0,0,1,19.2,19.2V80A192.41,192.41,0,0,0,160,80ZM313.6,467.2a19.22,19.22,0,0,1-19.2,19.2H179.2A19.22,19.22,0,0,1,160,467.2V432a192.41,192.41,0,0,0,153.6,0Zm40.86-93.54A166.4,166.4,0,1,1,403.2,256,165.31,165.31,0,0,1,354.46,373.66ZM441.6,275.2a6.41,6.41,0,0,1-6.4,6.4h-8.1a193.26,193.26,0,0,0,0-51.2h8.1a6.41,6.41,0,0,1,6.4,6.4Z"/></svg>